<svg xmlns="http://www.w3.org/2000/svg" version="1.1" xmlns:xlink="http://www.w3.org/1999/xlink" xmlns:svgjs="http://svgjs.com/svgjs" width="512" height="512" x="0" y="0" viewBox="0 0 512 512" style="enable-background:new 0 0 512 512" xml:space="preserve" class=""><g><circle cx="256" cy="256" r="256" style="" fill="#ffd93b" data-original="#ffd93b"></circle><path d="M512 256c0 141.44-114.64 256-256 256-80.48 0-152.32-37.12-199.28-95.28 43.92 35.52 99.84 56.72 160.72 56.72 141.36 0 256-114.56 256-256 0-60.88-21.2-116.8-56.72-160.72C474.8 103.68 512 175.52 512 256z" style="" fill="#f4c534" data-original="#f4c534" class=""></path><path d="M303.424 221.168c5.6 23.072 26 39.2 49.648 39.2 23.68 0 44.16-16.128 49.76-39.216 1.552-6.432 8-10.368 14.48-8.832 6.432 1.568 10.384 8.048 8.832 14.496-8.24 33.872-38.288 57.536-73.072 57.536-34.768 0-64.768-23.664-72.96-57.552-1.568-6.448 2.384-12.928 8.832-14.48a11.995 11.995 0 0 1 14.48 8.848zM109.168 221.168c5.6 23.072 26 39.2 49.648 39.2 23.68 0 44.16-16.128 49.76-39.216 1.568-6.432 8.032-10.368 14.48-8.832 6.432 1.568 10.384 8.048 8.832 14.496-8.24 33.872-38.288 57.536-73.072 57.536-34.768 0-64.768-23.664-72.96-57.552-1.568-6.448 2.384-12.928 8.832-14.48 6.592-1.568 12.944 2.528 14.48 8.848zM315.632 385.696c0 33.008-26.768 59.616-59.6 59.616-33.008 0-59.616-26.608-59.616-59.616 0-32.848 26.608-59.616 59.616-59.616 32.832 0 59.6 26.768 59.6 59.616z" style="" fill="#3e4347" data-original="#3e4347"></path><path d="M345.728 105.408v14.128H290.32V106.8c4.336-5.04 27.136-31.344 31.76-35.824-5.312.288-23.92 0-29.52 0V57.552h51.344v11.616c-27.28 31.472-20.56 23.648-32.032 36.24 9.648-.56 6.16 0 33.856 0zM448.816 80.944v19.6h-76.832V82.88c6.016-6.992 37.632-43.456 44.048-49.664-7.376.384-33.184 0-40.944 0v-18.64h71.2v16.096c-37.84 43.648-28.528 32.784-44.432 50.256 13.392-.768 8.544.016 46.96.016z" style="" fill="#e24b4b" data-original="#e24b4b"></path><path d="m425.6 204.192-94.464-35.408c-5.584-2.096-8.416-8.32-6.32-13.904a10.794 10.794 0 0 1 13.904-6.32l94.464 35.408c5.584 2.096 8.416 8.32 6.32 13.904s-8.32 8.416-13.904 6.32zM86.4 204.192l94.464-35.408c5.584-2.096 8.416-8.32 6.32-13.904s-8.304-8.416-13.904-6.32l-94.464 35.408c-5.584 2.096-8.416 8.32-6.32 13.904s8.32 8.416 13.904 6.32z" style="" fill="#f4c534" data-original="#f4c534" class=""></path></g></svg>