<svg width="84" height="84" viewBox="0 0 84 84" fill="none" xmlns="http://www.w3.org/2000/svg">
<path d="M9.13956 40.9482C9.13956 40.9482 12.4567 45.8215 19.4092 49.9465C19.4092 49.9465 14.3739 7.39085 47.1822 0C38.7766 30.8499 57.8743 39.55 64.8358 23.2514C76.4615 38.7732 67.6345 52.3151 67.6345 52.3151C72.4015 53.0019 76.4058 47.7939 76.4058 47.7939C76.4415 48.4355 76.4615 49.0814 76.4615 49.732C76.4617 68.637 61.1361 83.9627 42.2309 83.9627C23.3256 83.9627 8 68.637 8 49.7318C8 46.695 8.39751 43.7514 9.13956 40.9482Z" fill="#FF6536"/>
<path d="M76.406 47.7939C76.406 47.7939 72.4017 53.0019 67.6346 52.3151C67.6346 52.3151 76.4617 38.7732 64.836 23.2514C57.8745 39.55 38.7767 30.8499 47.1824 0C45.4252 0.395871 43.7774 0.893251 42.2309 1.47886V83.9627C61.1361 83.9627 76.4617 68.637 76.4617 49.7318C76.4617 49.0813 76.4417 48.4355 76.406 47.7939Z" fill="#FF6536"/>
<path d="M27.2186 68.9504C27.2186 77.2414 33.9399 83.9627 42.2309 83.9627C50.5218 83.9627 57.2431 77.2414 57.2431 68.9504C57.2431 64.5127 55.3177 60.5248 52.2565 57.7765C46.4523 65.662 38.181 53.7004 44.6271 44.9653C44.6271 44.9653 27.2186 47.1469 27.2186 68.9504Z" fill="#FBBF00"/>
<path d="M57.2431 68.9504C57.2431 64.5127 55.3177 60.5248 52.2565 57.7765C46.4523 65.662 38.181 53.7004 44.6271 44.9653C44.6271 44.9653 43.6812 45.0842 42.2309 45.5419V83.9627C50.5218 83.9627 57.2431 77.2414 57.2431 68.9504Z" fill="#FBBF00"/>
</svg>
