<?xml version="1.0" encoding="utf-8"?>
<!-- Generator: Adobe Illustrator 26.2.0, SVG Export Plug-In . SVG Version: 6.00 Build 0)  -->
<svg version="1.1" id="Home_-_Icon" xmlns="http://www.w3.org/2000/svg" xmlns:xlink="http://www.w3.org/1999/xlink" x="0px"
	 y="0px" viewBox="0 0 21.6 20.9" style="enable-background:new 0 0 21.6 20.9;" xml:space="preserve">
<style type="text/css">
	.st0{fill:#fff;}
</style>
<path class="st0" d="M21,10.3c-0.2-0.7-0.5-1.3-1.1-1.7C17.6,6.3,15.3,4,13,1.7c-0.5-0.5-1.1-0.9-1.7-1.1l-0.1,0h-0.7l-0.1,0
	C9.7,0.8,9.1,1.1,8.6,1.7C6.3,4,4,6.3,1.7,8.6C1.1,9,0.8,9.6,0.6,10.3l0,0.1V11c0,1.3,1.1,2.3,2.4,2.3c0,0.3,0,0.6,0,0.9
	c0,1.1,0,2,0,3.2c0,1.4,0.9,2.6,2.3,2.9l0,0l0.2,0l0.1,0h2.5c0.7,0.1,1.4-0.4,1.5-1.1c0-0.1,0-0.2,0-0.4c0-0.7,0-1,0-1.4
	c0-0.4,0-0.7,0-1.5c0-0.1,0-0.1,0-0.2c0.1,0,0.1,0,0.2,0h2c0.1,0,0.1,0,0.2,0c0,0.1,0,0.1,0,0.2c0,0.7,0,1.1,0,1.5
	c0,0.3,0,0.7,0,1.4c0,0.5,0.2,1.5,1.7,1.5h2.6l0,0c1.4-0.3,2.4-1.5,2.3-2.9c0-1.2,0-2.1,0-3.2c0-0.3,0-0.6,0-0.9
	c1.3,0,2.3-1,2.4-2.3L21,10.3L21,10.3z M19.3,11c0,0.3-0.2,0.7-0.9,0.7H17v1c0,0.5,0,1,0,1.5c0,1,0,2,0,3.2c0,0.6-0.4,1.1-0.9,1.3
	c0,0,0,0-0.1,0h-2.4c0-0.6,0-0.9,0-1.2c0-0.4,0-0.7,0-1.5c0.1-1-0.7-1.8-1.6-1.9c-0.1,0-0.2,0-0.2,0H9.8c-0.9-0.1-1.8,0.5-1.9,1.5
	c0,0.1,0,0.3,0,0.4c0,0.7,0,1.1,0,1.5c0,0.3,0,0.7,0,1.2H5.6c0,0,0,0-0.1,0c-0.6-0.1-1-0.7-0.9-1.3c0-1.2,0-2.2,0-3.2
	c0-0.5,0-1,0-1.5v-1H3.1c-0.7,0-0.8-0.4-0.9-0.7v-0.4c0.1-0.3,0.3-0.6,0.6-0.8c2.3-2.3,4.6-4.6,6.9-6.9c0.2-0.3,0.5-0.5,0.8-0.6H11
	c0.3,0.1,0.6,0.3,0.8,0.6c2.3,2.3,4.6,4.6,6.9,6.9c0.3,0.2,0.5,0.5,0.6,0.8V11z"/>
</svg>
