<?xml version="1.0" encoding="utf-8"?>
<!-- Generator: Adobe Illustrator 26.2.0, SVG Export Plug-In . SVG Version: 6.00 Build 0)  -->
<svg version="1.1" id="Movies_-_Icon" xmlns="http://www.w3.org/2000/svg" xmlns:xlink="http://www.w3.org/1999/xlink" x="0px"
	 y="0px" viewBox="0 0 21.2 20.7" style="enable-background:new 0 0 21.2 20.7;" xml:space="preserve">
<style type="text/css">
	.st0{fill:#fff;}
</style>
<g id="Group_86">
	<path id="Path_121" class="st0" d="M20.1,10V8h-1.9L17,10.1h1.5v5.6c0,1.3-1.1,2.3-2.3,2.3H5.5c-1.3,0-2.3-1.1-2.3-2.3v-5.6h0.6
		L4.9,8H1.6v2.1l0,0v5.6c0,2.2,1.8,3.9,3.9,3.9h10.6c2.2,0,3.9-1.8,3.9-3.9L20.1,10L20.1,10z"/>
	<path id="Path_122" class="st0" d="M6.4,10.1h2.4L9.9,8H7.6L6.4,10.1z"/>
	<path id="Path_123" class="st0" d="M11.7,10.1h2.4L15.2,8h-2.4L11.7,10.1z"/>
	<path id="Path_124" class="st0" d="M4.3,3.8L1.1,4.4l0.4,2L3.6,6L4.3,3.8z"/>
	<path id="Path_125" class="st0" d="M9.3,2.9L7,3.3L6.3,5.5l2.3-0.4L9.3,2.9z"/>
	<path id="Path_126" class="st0" d="M14.6,2l-2.3,0.4l-0.7,2.2l2.3-0.4L14.6,2z"/>
	<path id="Path_127" class="st0" d="M19.3,1.1l-1.9,0.3l-0.7,2.2l3-0.5L19.3,1.1z"/>
</g>
</svg>
