<svg width="283" height="283" viewBox="0 0 283 283" fill="none" xmlns="http://www.w3.org/2000/svg">
<path d="M177.351 109.964H96.3657C94.3123 109.964 92.3155 109.29 90.683 108.044C89.0505 106.798 87.8728 105.051 87.3313 103.07C86.7899 101.089 86.9147 98.9851 87.6865 97.0822C88.4583 95.1792 89.8343 93.5828 91.6026 92.5388C126.888 71.6892 145.216 47.3679 147.633 18.1857C148.476 8.05804 157.497 -0.0316072 167.736 0.102348C178.185 0.269324 187.974 4.45745 195.305 11.8966C202.642 19.3427 206.686 29.203 206.689 39.6602V42.8097C206.689 68.3546 199.123 84.6423 185.162 105.762C184.309 107.054 183.149 108.113 181.785 108.847C180.422 109.58 178.899 109.963 177.351 109.964Z" fill="#F4C534"/>
<path d="M251 120.377C251 104.179 239.652 91 225.702 91H95.5848C94.1391 91 92.7196 91.4504 91.4759 92.3052C82.3421 98.5763 50.4139 103.739 43.0036 107.888C40.4189 109.335 37.9776 110.702 35.7572 111.991C34.4161 112.77 33.2883 113.967 32.5 115.448C31.7118 116.929 31.2942 118.636 31.2943 120.377V217.071C31.2942 218.812 31.7118 220.519 32.5 222C33.2883 223.481 34.4161 224.678 35.7572 225.457C68.3806 244.396 107.377 270 139 270C143.897 270 159.733 269.945 164.883 269.889C170.579 269.827 176.468 269.762 182.642 269.762L192.5 269.889C206.449 269.889 223.516 256.584 223.516 240.385C223.516 234.938 222.234 229.834 220 225.456C227.268 220.289 234 214 235.5 203C236.236 197.604 235.234 189.831 233 185.453C240.268 180.286 247.5 170.98 247.5 160.379C247.5 152.76 244.989 145.81 240.879 140.585C245.355 135.107 251 127.961 251 120.377Z" fill="#FFD93B"/>
</svg>
