<svg width="158" height="158" viewBox="0 0 158 158" fill="none" xmlns="http://www.w3.org/2000/svg">
<path d="M93.3749 28.1468L76.6399 44.8812C70.3714 44.8812 64.6902 42.3412 60.5819 38.2295C56.4702 34.1212 53.9292 28.44 53.9292 22.1718C53.9292 11.4661 61.333 2.49526 71.2997 0.0965576C71.2229 0.40764 71.1541 0.720659 71.0935 1.0353C70.8065 2.48473 70.6628 3.95889 70.6646 5.43646C70.6646 11.7049 73.2055 17.3861 77.3172 21.4941C81.4252 25.6062 87.1068 28.1468 93.3749 28.1468Z" fill="#A54D2F"/>
<path d="M93.3749 28.1468L84.6559 36.8662C80.2415 35.9536 76.2973 33.7574 73.2284 30.6869C69.1167 26.5801 66.5754 20.9014 66.5754 14.6292C66.5754 9.52784 68.256 4.82672 71.0932 1.03564C70.8062 2.48497 70.6625 3.95903 70.6643 5.4365C70.6643 11.705 73.2055 17.3862 77.3172 21.4942C81.4252 25.6062 87.1068 28.1468 93.3749 28.1468Z" fill="#BC6A46"/>
<path d="M125.713 50.8531V50.8562C125.713 63.3965 115.547 73.5635 103.003 73.5635H54.9936C42.4532 73.5635 32.2866 63.3965 32.2866 50.8565V50.8528C32.2866 38.3137 42.4532 28.1471 54.9936 28.1471H103.003C115.547 28.1471 125.713 38.314 125.713 50.8531Z" fill="#A54D2F"/>
<path d="M151.2 92.0078C151.2 104.548 141.032 114.715 128.493 114.715H29.5068C23.2362 114.715 17.5574 112.174 13.4491 108.062C9.33866 103.954 6.79739 98.2788 6.79739 92.0078C6.79739 79.4641 16.9643 69.2975 29.5068 69.2975H128.493C134.764 69.2975 140.439 71.8384 144.547 75.9501C148.659 80.0572 151.2 85.736 151.2 92.0078Z" fill="#A54D2F"/>
<path d="M151.2 92.0079C151.2 97.5144 149.239 102.564 145.976 106.495H44.2687C41.0032 102.564 39.0421 97.5144 39.0421 92.0079C39.0421 79.4641 49.2087 69.2975 61.7524 69.2975H128.493C134.764 69.2975 140.439 71.8385 144.547 75.9502C148.659 80.0573 151.2 85.736 151.2 92.0079ZM125.713 50.8532V50.8563C125.713 55.3093 124.433 59.4599 122.218 62.9655H57.0633C54.8488 59.4599 53.5688 55.3093 53.5688 50.8563V50.8532C53.5688 38.3138 63.7354 28.1469 76.2757 28.1469H103.003C115.547 28.1469 125.713 38.3138 125.713 50.8532Z" fill="#BC6A46"/>
<path d="M150.317 113.029C137.601 139.626 110.449 158 79 158C57.9372 158 38.8032 149.758 24.6418 136.325C17.6574 129.699 11.8821 121.811 7.68336 113.029C9.16444 112.731 10.6716 112.581 12.1824 112.582H145.818C147.36 112.582 148.862 112.738 150.317 113.029Z" fill="#A54D2F"/>
<path d="M150.317 113.029C137.601 139.626 110.449 158 79 158C57.9372 158 38.8032 149.758 24.6418 136.325C24.6262 135.981 24.6185 135.637 24.6187 135.293C24.6187 122.75 34.7856 112.582 47.3293 112.582H145.818C147.36 112.582 148.862 112.738 150.317 113.029Z" fill="#BC6A46"/>
</svg>
