<svg width="376" height="376" viewBox="0 0 376 376" fill="none" xmlns="http://www.w3.org/2000/svg">
<path d="M188 375.5C291.553 375.5 375.5 291.553 375.5 188C375.5 84.4466 291.553 0.5 188 0.5C84.4466 0.5 0.5 84.4466 0.5 188C0.5 291.553 84.4466 375.5 188 375.5Z" fill="#FFD93B"/>
<path d="M293.92 33.27C326.21 66.95 346.05 112.66 346.05 163C346.05 266.55 262.1 350.5 158.55 350.5C119.24 350.5 82.77 338.4 52.63 317.73C86.76 353.33 134.79 375.5 188 375.5C291.55 375.5 375.5 291.55 375.5 188C375.5 123.75 343.18 67.06 293.92 33.27Z" fill="#F4C534"/>
<path d="M76.66 62.7999C87.2137 56.6676 98.9899 52.938 111.15 51.8767C123.309 50.8154 135.554 52.4486 147.01 56.6599C150.21 57.8999 155.31 46.1399 151.4 44.6599C138.181 39.8003 124.054 37.9161 110.023 39.1416C95.9932 40.3671 82.406 44.6721 70.23 51.7499C66.65 53.8999 73.73 64.5799 76.66 62.7999ZM226.67 81.5499C248.02 69.1299 273.81 66.8799 297.02 75.3899C300.22 76.6299 305.32 64.8799 301.41 63.3899C274.67 53.5699 244.89 56.1699 220.23 70.4999C216.66 72.6399 223.72 83.3099 226.67 81.5499Z" fill="#90762D"/>
<path d="M138.91 205.04C170.94 196.75 205.85 202.76 232.97 221.19C239.66 225.85 227.11 242.76 220.46 238.07C202.55 225.93 174.06 217.54 144.57 225.04C136.67 227.06 130.48 207.33 138.91 205.04Z" fill="#674F27"/>
<path d="M255.54 170.16C229.61 170.16 208.55 149.12 208.55 123.17C208.55 112.55 212.13 102.78 218.07 94.91C228.63 91.95 240.41 90.24 252.89 90.24C268.18 90.24 282.43 92.76 294.62 97.07C299.787 104.789 302.54 113.871 302.53 123.16C302.54 149.13 281.49 170.16 255.54 170.16Z" fill="white"/>
<path d="M262.01 90.58C264.66 94.38 266.23 98.98 266.23 103.96C266.23 116.93 255.71 127.46 242.73 127.46C229.76 127.46 219.23 116.93 219.23 103.96C219.23 100.37 220.1 97 221.55 93.95C231.18 91.57 241.78 90.26 252.9 90.26C255.99 90.26 259.02 90.38 262.01 90.58Z" fill="#674F27"/>
<path d="M120.44 170.16C94.51 170.16 73.45 149.12 73.45 123.17C73.45 112.55 77.03 102.78 82.97 94.91C93.53 91.95 105.31 90.24 117.79 90.24C133.08 90.24 147.33 92.76 159.52 97.07C164.687 104.789 167.44 113.871 167.43 123.16C167.44 149.13 146.4 170.16 120.44 170.16Z" fill="white"/>
<path d="M126.92 90.58C129.57 94.38 131.14 98.98 131.14 103.96C131.14 116.93 120.62 127.46 107.64 127.46C94.67 127.46 84.14 116.93 84.14 103.96C84.14 100.37 85.01 97 86.46 93.95C96.09 91.57 106.69 90.26 117.81 90.26C120.9 90.26 123.92 90.38 126.92 90.58Z" fill="#674F27"/>
<path d="M191.97 263.22C165.64 269.59 99.1299 277.5 86.8299 265.18C81.3199 259.62 82.37 251.29 84.16 237.02C85.89 222.91 72.2199 207.43 62.1499 206.17C50.1099 204.64 43.2099 213.44 47.4599 226.15C56.8199 254.01 39.0399 262.98 38.2199 283.69C37.7399 295.69 34.0499 315.54 52.0899 341.09C72.4899 369.98 108.27 370.34 120.58 369.91C135.12 369.41 141.21 368.86 144.62 362.25C148.38 354.95 146.66 353.16 148.21 350.51C151.63 344.73 153.35 345.44 154.91 338.92C156.6 331.81 151.57 327.83 152.8 324.37C155.32 317.17 161.62 318.2 155.3 300.92C176.59 297.7 190.52 294.39 203.08 287.24C225.82 274.34 205.96 259.83 191.97 263.22Z" fill="white"/>
<path d="M49.63 220.28C54.23 241.14 55.44 248.29 47.48 265.1C36.64 287.98 32.08 351.49 99.21 363.61C140 370.97 146.05 360.94 144.31 350.32C143.19 343.48 148.97 340.81 150.27 338.47C154.63 330.66 148.22 327.39 148.1 324.28C147.87 318.44 153.75 318.64 154.67 313.02C156.36 302.79 144.21 299.33 154.98 298.54C175.61 297.03 189.55 293.65 201.47 285.32C212.63 277.54 204.89 262.28 189.84 265.48C154.66 272.94 102.61 282.02 84.58 265.45C76.51 258.04 82.99 249.46 82.24 232.62C81.21 209.91 45.45 201.34 49.63 220.28ZM97.07 373.86C75.58 370.08 58.36 359.77 47.26 344.07C30.07 319.72 31.32 300.28 32.16 287.43C32.25 285.98 32.33 284.61 32.39 283.34C32.75 274.35 35.82 267.57 38.8 260.98C43.21 251.26 47.01 242.88 41.9 227.68C39.13 219.42 40.16 211.7 44.73 206.54C48.82 201.9 55.39 199.78 62.75 200.7C62.86 200.73 63.52 200.83 63.61 200.84C76.95 203.18 92 221.04 89.94 237.79C88.25 251.41 87.61 258 91.04 261.45C91.65 262.07 93.82 263.66 100.46 264.83C124.1 268.98 170.85 262.6 190.38 257.86C193.65 257.07 197.31 256.99 200.92 257.63C210.18 259.25 217.43 265.04 218.96 272.06C219.87 276.27 219.42 284.46 206.19 291.98C193.88 298.97 180.6 302.42 162.75 305.35C167.51 317.74 155.79 322.5 158.15 327.11C161.58 333.86 160.61 339.71 153.57 346.24C148.53 350.91 154.61 356.19 149.87 364.77C144.54 374.44 134.82 374.94 120.96 375.41C112.49 375.71 104.69 375.19 97.07 373.86Z" fill="#CCCFD4"/>
</svg>
