<?xml version="1.0" encoding="utf-8"?>
<!-- Generator: Adobe Illustrator 26.2.0, SVG Export Plug-In . SVG Version: 6.00 Build 0)  -->
<svg version="1.1" id="Search_-_Icon" xmlns="http://www.w3.org/2000/svg" xmlns:xlink="http://www.w3.org/1999/xlink" x="0px"
	 y="0px" viewBox="0 0 17.8 19.1" style="enable-background:new 0 0 17.8 19.1;" xml:space="preserve">
<style type="text/css">
	.st0{fill:#fff;}
</style>
<path class="st0" d="M9.9,0.9C6,0.9,2.9,4,2.9,7.9c0,1.9,0.7,3.6,1.9,4.9l-3.7,3.7c-0.4,0.4-0.4,1,0,1.4c0.2,0.2,0.4,0.3,0.7,0.3h0
	c0.3,0,0.5-0.1,0.7-0.3L6.4,14c1,0.6,2.2,0.9,3.5,0.9c3.9,0,7.1-3.2,7.1-7.1S13.8,0.9,9.9,0.9z M9.9,13.4c-1.2,0-2.3-0.4-3.1-1
	c0,0,0-0.1-0.1-0.1c-0.1-0.1-0.2-0.2-0.4-0.2c-1.2-1-1.9-2.5-1.9-4.2c0,0,0,0,0,0c0-3,2.5-5.5,5.5-5.5c3,0,5.5,2.5,5.5,5.5
	S13,13.4,9.9,13.4z"/>
</svg>
