<?xml version="1.0"?>
<svg width="12.4" height="14.2" xmlns="http://www.w3.org/2000/svg" xmlns:svg="http://www.w3.org/2000/svg" enable-background="new 0 0 12.4 14.2" version="1.1" xml:space="preserve">
 <style type="text/css">.st0{fill:#FFFFFF;}
	.st1{fill:#00FFBA;}</style>
 <g class="layer">
  <title>Layer 1</title>
  <g id="Shows_-_Icon">
   <path class="st0" d="m2.6,14.14l7.2,0c1.5,0 2.6,-1.2 2.6,-2.6l0,-5.4c0,-1.5 -1.2,-2.6 -2.6,-2.6l-7.2,0c-1.4,0 -2.6,1.2 -2.6,2.6l0,5.3c0,1.5 1.2,2.7 2.6,2.7m7.2,-9.6c0.9,0 1.6,0.7 1.6,1.6l0,5.3c0,0.9 -0.7,1.6 -1.6,1.6l-7.2,0c-0.9,0 -1.6,-0.7 -1.6,-1.6l0,-5.3c0,-0.9 0.7,-1.6 1.6,-1.6l7.2,0z" id="Path_106"/>
   <path class="st0" d="m6.4,4.24c0.1,0 0.3,-0.1 0.4,-0.2l3.2,-3.2c0.2,-0.2 0.2,-0.5 0,-0.7c-0.2,-0.2 -0.6,-0.2 -0.8,0l-3.2,3.2c-0.2,0.2 -0.2,0.5 0,0.7c0.1,0.1 0.3,0.2 0.4,0.2" id="Path_107"/>
   <path class="st0" d="m6,4.24c0.3,0 0.5,-0.2 0.5,-0.5c0,-0.1 -0.1,-0.3 -0.2,-0.4l-3.1,-3.2c-0.2,-0.2 -0.6,-0.2 -0.8,0c-0.2,0.2 -0.2,0.5 0,0.7l3.2,3.2c0.1,0.1 0.3,0.2 0.4,0.2" id="Path_108"/>
  </g>
  <rect fill="#FF0000" height="0" id="svg_1" stroke="#000000" transform="matrix(1 0 0 1 0 0)" width="0" x="3.94" y="7.22"/>
 </g>
</svg>